# xmcd
#
# Track frame offsets: 
#        150
#        2440
#        22218
#        42733
#        63584
#        88262
#        108048
#        125583
#        146094
#        169167
#        187099
#        209422
#        230381
#        247504
#        275158
#        298272
#
# Disc length: 4181 seconds
#
# Revision: 0
# Processed by: cddbd v1.5.2PL0 Copyright (c) Steve Scherf et al.
# Submitted via: ExactAudioCopy v1.3
#
DISCID=f4105310
DTITLE=Студия-80 - Лабиринты снов
DYEAR=2017
DGENRE=Disco
TTITLE0=Вступление
TTITLE1=Алло
TTITLE2=Солнце на ладони
TTITLE3=Слёзы на стекле
TTITLE4=Снег за окном
TTITLE5=Знаю, будешь искать
TTITLE6=Всего три дня
TTITLE7=Зайчик солнечный
TTITLE8=Остров отдыха вашей души
TTITLE9=Диско
TTITLE10=О нас
TTITLE11=Букет из роз
TTITLE12=Остров детства
TTITLE13=Середина сентября
TTITLE14=Одинокий вечер
TTITLE15=Лабиринты снов
EXTD=
EXTT0=
EXTT1=
EXTT2=
EXTT3=
EXTT4=
EXTT5=
EXTT6=
EXTT7=
EXTT8=
EXTT9=
EXTT10=
EXTT11=
EXTT12=
EXTT13=
EXTT14=
EXTT15=
PLAYORDER=
